<svg height="2048" viewBox="0 0 2048 2048" width="2048" xmlns="http://www.w3.org/2000/svg" shape-rendering="geometricPrecision" text-rendering="geometricPrecision" image-rendering="optimizeQuality" fill-rule="evenodd" clip-rule="evenodd"><defs/><g id="Layer_x0020_1"><path class="fil0" d="M1557.76 1344.51h-480.051l-1.563-.125c-9.194-.938-17.431-5.12-23.364-11.44-5.922-6.31-9.587-14.718-9.712-24.173l-.063-.188V759.026l.063-.187c.119-8.588 1.915-15.406 6.934-21.761 4.416-5.593 10.655-9.684 19.923-13.263 18.084-7.008 37.347-12.551 57.306-16.285 19.334-3.618 39.232-5.577 59.247-5.577 83.527 0 159.604 31.94 216.79 84.27 52.908 48.414 89.576 114.317 100.936 188.537a193.212 193.212 0 0 1 16.303-4.013c12.262-2.459 24.734-3.763 37.25-3.763 52.173 0 99.453 21.196 133.713 55.467 34.218 34.228 55.383 81.495 55.383 133.687 0 52.17-21.144 99.212-55.332 133.257-34.248 34.103-81.552 55.115-133.762 55.115z"/><path class="fil1" d="M1007.12 1315.93v-.169c-.086 10.713-5.108 19.423-11.218 19.423-6.143 0-11.165-8.71-11.251-19.338l-2.296-71.558-2.287-73.473 4.583-397.826v-2c.037-6.054 1.662-11.453 4.19-15.11 1.918-2.723 4.399-4.397 7.06-4.397 2.104 0 4.058 1 5.733 2.74 3.2 3.482 5.438 9.628 5.534 16.682l4.974 399.911-5.022 145.115zM927.426 1303.31l-.426 14.536c-.049 5.06-1.285 9.633-3.152 12.947-1.908 3.253-4.533 5.313-7.341 5.313-3.252 0-6.109-2.573-8.067-6.633-1.44-2.993-2.344-6.82-2.442-10.88-.037-.168-.037-.428-.037-.656 0 0-4.02-147.116-4.02-147.37l3.971-362.951.049-3.488c.037-6.398 1.953-12.03 4.862-15.279 1.624-1.914 3.533-2.975 5.684-2.975 2.099 0 4.103 1.144 5.766 3.145 2.823 3.228 4.678 8.796 4.727 15.109l4.437 366.607-4.011 132.574zM865.456 1318.93v-.084c-.087 9.542-4.437 16.94-9.826 16.94-5.4 0-9.687-7.398-9.836-16.856l-4.384-148.278 4.384-307.99c.149-9.543 4.436-17.026 9.836-17.026 5.389 0 9.739 7.483 9.826 17.026l4.92 308.074-4.92 148.194zM804.353 1319.84v-.084c-.145 8.796-4.104 15.771-9.116 15.771-4.958 0-8.966-6.97-9.062-15.687l-4.829-149.195 4.78-319.702c.145-8.885 4.153-15.772 9.111-15.772 5.012 0 8.97 6.887 9.116 15.772l5.438 319.702-5.438 149.195zM743.763 1321.16c-.149 8.14-3.862 14.538-8.406 14.538-4.57 0-8.249-6.398-8.394-14.452l-5.254-150.599 5.254-328.076c.145-8.138 3.823-14.537 8.394-14.537 4.544 0 8.257 6.4 8.406 14.537l5.863 328.076-5.863 150.513zM683.585 1322.16v-.084c-.145 7.475-3.533 13.278-7.684 13.278-4.157 0-7.54-5.803-7.686-13.194l-5.631-151.513s5.631-317.388 5.631-317.45c.146-7.396 3.53-13.283 7.686-13.283 4.151 0 7.535 5.887 7.684 13.283l6.39 317.45-6.39 151.513zM623.008 1324.56v-.084c-.194 6.736-3.25 12.049-7.024 12.049-3.712 0-6.767-5.313-6.964-12.049l-6.061-153.08 6.061-292.97c.197-6.718 3.252-12.032 6.964-12.032 3.775 0 6.83 5.314 7.024 12.031l6.867 292.971-6.867 153.164zM564.676 1324.65v-.085c-.194 6.061-2.954 10.887-6.302 10.887-3.336-.007-6.11-4.826-6.294-10.802l-6.437-154.08 6.437-238.434c.184-6.06 2.958-10.861 6.294-10.861 3.348 0 6.108 4.8 6.302 10.796l7.307 238.5-7.307 154.08zM505.883 1324.56c-.184 5.483-2.626 9.542-5.535 9.542-3.007 0-5.385-4.06-5.583-9.542l-6.916-154.078 6.916-146.519c.198-5.484 2.576-9.542 5.583-9.542 2.958 0 5.35 4.058 5.535 9.457l7.833 146.604-7.833 154.078zM447.639 1323.33c-.242 4.717-2.344 8.289-4.873 8.289-2.58-.005-4.682-3.572-4.915-8.289l-7.303-152.85 7.303-157.973c.233-4.74 2.335-8.307 4.915-8.307 2.529 0 4.63 3.566 4.873 8.307l8.294 157.973-8.294 152.85zM389.761 1318.59c-.246 4.144-2.015 7.055-4.155 7.055-2.2 0-3.92-2.91-4.153-7.055l-7.734-148.108 7.734-153.743c.184-4.144 1.954-7.14 4.153-7.14 2.14 0 3.91 2.996 4.155 7.14l8.773 153.743-8.773 148.108zM332.424 1297.17c-.294 3.398-1.724 5.826-3.484 5.826-1.721 0-3.2-2.428-3.446-5.826l-8.159-126.77 8.16-129.579c.245-3.338 1.724-5.826 3.445-5.826 1.76 0 3.19 2.428 3.484 5.826l9.261 129.579-9.261 126.77zM278.905 1249.26c-.28 3.253-1.61 5.571-3.335 5.571-1.721 0-3.054-2.318-3.297-5.656l-6.06-78.78 6.06-80.1c.243-3.32 1.576-5.658 3.297-5.658 1.725 0 3.055 2.338 3.335 5.657l7.21 80.185-7.21 78.781z"/></g></svg>